<svg xmlns="http://www.w3.org/2000/svg" width="1em" height="1em" viewBox="0 0 24 24">
<defs>
    <linearGradient id="threeColorGradient" x1="0%" y1="100%" x2="100%" y2="0%">
      <stop offset="10%" style="stop-color:#edb77e;" />
      <stop offset="65%" style="stop-color:#a61168;" />
      <stop offset="100%" style="stop-color:#5f458d;" />
    </linearGradient>
</defs>
<path fill="url(#threeColorGradient)" d="M8.82 17L13 19.28V22H6c-1.11 0-2-.89-2-2V4a2 2 0 0 1 2-2h1v7l2.5-1.5L12 9V2h6a2 2 0 0 1 2 2v8.54l-1.5-.82L8.82 17M24 17l-5.5-3l-5.5 3l5.5 3l5.5-3m-9 2.09v2L18.5 23l3.5-1.91v-2L18.5 21L15 19.09Z"/></svg>