<?xml version="1.0" standalone="no"?>
<!DOCTYPE svg PUBLIC "-//W3C//DTD SVG 20010904//EN"
 "http://www.w3.org/TR/2001/REC-SVG-20010904/DTD/svg10.dtd">
<svg version="1.0" xmlns="http://www.w3.org/2000/svg"
 width="1080.000000pt" height="1080.000000pt" viewBox="0 0 1080.000000 1080.000000"
 preserveAspectRatio="xMidYMid meet">
<g transform="translate(0.000000,1080.000000) scale(0.100000,-0.100000)"
fill="#000000" stroke="none">
<path d="M2740 10639 c-435 -45 -909 -217 -1285 -469 -344 -231 -658 -554
-872 -898 -231 -372 -383 -820 -423 -1247 -14 -150 -14 -5057 0 -5215 68 -776
464 -1517 1070 -2007 292 -236 663 -432 1010 -533 196 -57 388 -94 570 -110
159 -14 5066 -14 5215 0 461 43 930 211 1323 474 176 117 266 190 425 346 460
449 733 977 854 1652 15 85 17 326 21 2673 2 1881 0 2617 -8 2715 -40 468
-213 947 -491 1355 -480 705 -1250 1171 -2079 1260 -114 13 -524 15 -2690 14
-1405 -1 -2593 -6 -2640 -10z m1291 -1463 c378 -102 612 -353 715 -766 23 -92
27 -133 31 -322 8 -321 -22 -559 -123 -968 -82 -332 -270 -900 -405 -1223 -11
-27 -18 -51 -15 -54 10 -10 147 109 310 267 174 170 336 347 494 540 171 209
186 224 264 266 73 39 73 39 188 39 111 0 117 -2 179 -33 80 -42 149 -107 185
-173 16 -28 44 -113 63 -188 118 -468 313 -872 472 -973 59 -37 98 -36 175 4
124 66 437 413 523 581 90 177 303 267 492 208 160 -50 262 -168 295 -341 8
-38 25 -89 40 -114 29 -49 117 -128 192 -172 190 -111 506 -178 913 -194 227
-8 260 -14 346 -64 58 -34 126 -111 161 -181 27 -56 29 -68 29 -175 0 -110 -2
-119 -32 -181 -58 -117 -156 -196 -283 -226 -113 -27 -507 -6 -794 43 -249 42
-494 117 -671 207 -106 53 -256 150 -314 202 l-41 37 -95 -90 c-241 -231 -468
-358 -710 -397 -494 -81 -934 222 -1240 853 -27 56 -52 102 -56 102 -4 0 -38
-32 -75 -71 -91 -94 -326 -308 -442 -403 -339 -276 -718 -473 -994 -517 -66
-11 -108 -30 -108 -49 0 -4 -52 -114 -115 -244 -63 -130 -115 -241 -115 -246
0 -7 986 -10 2869 -10 2848 0 2869 0 2934 -20 111 -34 203 -116 255 -227 24
-53 27 -69 27 -173 0 -108 -2 -119 -30 -174 -39 -78 -103 -148 -169 -185 -113
-65 127 -61 -3257 -61 -2921 0 -3077 -1 -3083 -17 -20 -53 -449 -826 -690
-1243 -155 -269 -206 -333 -307 -382 -152 -75 -346 -47 -470 68 -60 57 -94
113 -120 195 -36 115 -17 232 59 359 122 204 200 340 376 653 108 192 196 352
196 358 0 5 -57 9 -133 9 -203 0 -300 33 -398 137 -60 64 -94 134 -110 228
-17 96 5 196 62 283 49 74 93 112 179 155 l65 32 397 3 398 3 185 371 c102
205 185 377 185 384 0 7 -22 31 -49 54 -27 23 -79 77 -115 120 -231 273 -379
663 -442 1160 -25 199 -30 610 -10 825 103 1103 531 1892 1136 2095 126 42
186 50 360 46 139 -3 180 -8 261 -30z"/>
<path d="M3679 8366 c-188 -67 -386 -426 -498 -901 -131 -560 -102 -1268 68
-1639 17 -38 33 -67 35 -65 6 7 112 261 183 439 193 487 335 930 413 1288 84
387 86 744 4 842 -38 44 -135 61 -205 36z"/>
</g>
</svg>
